<mxfile host="app.diagrams.net" agent="Mozilla/5.0 (Windows NT 10.0; Win64; x64) AppleWebKit/537.36 (KHTML, like Gecko) Chrome/128.0.0.0 Safari/537.36 Edg/128.0.0.0" version="24.7.14">
  <diagram name="第 1 页" id="5925XXeC-vzFXoOeuUtz">
    <mxGraphModel dx="2234" dy="904" grid="1" gridSize="10" guides="1" tooltips="1" connect="1" arrows="1" fold="1" page="0" pageScale="1" pageWidth="827" pageHeight="1169" math="0" shadow="0">
      <root>
        <mxCell id="0" />
        <mxCell id="1" parent="0" />
        <mxCell id="PVhwvFCMjaON6rtG5Q-Z-4" style="edgeStyle=orthogonalEdgeStyle;rounded=0;orthogonalLoop=1;jettySize=auto;html=1;exitX=0.5;exitY=1;exitDx=0;exitDy=0;entryX=0.5;entryY=0;entryDx=0;entryDy=0;align=left;" parent="1" source="PVhwvFCMjaON6rtG5Q-Z-1" target="PVhwvFCMjaON6rtG5Q-Z-2" edge="1">
          <mxGeometry relative="1" as="geometry" />
        </mxCell>
        <mxCell id="PVhwvFCMjaON6rtG5Q-Z-1" value="&lt;div class=&quot;pointer&quot; style=&quot;box-sizing: border-box;&quot;&gt;&lt;div class=&quot;trace-line&quot; style=&quot;box-sizing: border-box;&quot;&gt;&lt;div class=&quot;pointer&quot; style=&quot;box-sizing: border-box;&quot;&gt;&lt;div class=&quot;trace-line&quot; style=&quot;box-sizing: border-box;&quot;&gt;&lt;div style=&quot;line-height: 19px;&quot;&gt;&lt;font face=&quot;Consolas, 黑体, Courier New, monospace, Consolas, Courier New, monospace&quot; color=&quot;#3b3b3b&quot;&gt;&lt;span style=&quot;font-size: 14px; white-space: pre;&quot;&gt;[aesop] ✅️ (G0) [100.0000%] ⋯ ⊢ b * (c * a) = b * (a * c) ▼&lt;br/&gt;  [] Initial goal:&lt;br/&gt;a b c : ℝ&lt;br/&gt;⊢ b * (c * a) = b * (a * c)&lt;br/&gt;  [] ✅️ Normalisation &lt;br/&gt;  [] Goal after normalisation:&lt;br/&gt;a b c : ℝ&lt;br/&gt;⊢ b * (c * a) = b * (a * c)&lt;br/&gt;  [] ✅️ Safe rules ▼&lt;br/&gt;  [] ✅️ safe|tactic|global|Aesop.BuiltinRule.preprocess &lt;/span&gt;&lt;/font&gt;&lt;br&gt;&lt;/div&gt;&lt;/div&gt;&lt;/div&gt;&lt;/div&gt;&lt;/div&gt;" style="rounded=0;whiteSpace=wrap;html=1;align=left;" parent="1" vertex="1">
          <mxGeometry x="-380" y="100" width="480" height="200" as="geometry" />
        </mxCell>
        <mxCell id="uhmgeas5rbrTf0mL0Isk-2" style="edgeStyle=orthogonalEdgeStyle;rounded=0;orthogonalLoop=1;jettySize=auto;html=1;entryX=0.5;entryY=0;entryDx=0;entryDy=0;" edge="1" parent="1" source="PVhwvFCMjaON6rtG5Q-Z-2" target="PVhwvFCMjaON6rtG5Q-Z-6">
          <mxGeometry relative="1" as="geometry" />
        </mxCell>
        <mxCell id="PVhwvFCMjaON6rtG5Q-Z-2" value="&lt;div style=&quot;color: rgb(59, 59, 59); font-family: Consolas, 黑体, &amp;quot;Courier New&amp;quot;, monospace, Consolas, &amp;quot;Courier New&amp;quot;, monospace; font-size: 14px; line-height: 19px; white-space: pre;&quot;&gt;&amp;nbsp; [aesop] new ❓️ R0 [100.0000%] safe|tactic|global:Aesop.BuiltinRule.preprocess ▼&lt;/div&gt;&lt;div style=&quot;color: rgb(59, 59, 59); font-family: Consolas, 黑体, &amp;quot;Courier New&amp;quot;, monospace, Consolas, &amp;quot;Courier New&amp;quot;, monospace; font-size: 14px; line-height: 19px; white-space: pre;&quot;&gt;&lt;div&gt;&amp;nbsp; [aesop] new ❓️ G1 [100.0000%] ⋯ ⊢ b * (c * a) = b * (a * c) ▼&lt;/div&gt;&lt;div&gt;&amp;nbsp; &amp;nbsp; []&lt;/div&gt;&lt;div&gt;&amp;nbsp; a&amp;nbsp;b&amp;nbsp;c&amp;nbsp;:&amp;nbsp;ℝ&lt;/div&gt;&lt;div&gt;&amp;nbsp; ⊢ b * (c * a) = b * (a * c)&lt;/div&gt;&lt;/div&gt;" style="rounded=0;html=1;align=left;whiteSpace=wrap;" parent="1" vertex="1">
          <mxGeometry x="-460" y="320" width="640" height="100" as="geometry" />
        </mxCell>
        <mxCell id="PVhwvFCMjaON6rtG5Q-Z-33" style="edgeStyle=orthogonalEdgeStyle;rounded=0;orthogonalLoop=1;jettySize=auto;html=1;exitX=0.5;exitY=1;exitDx=0;exitDy=0;entryX=0.5;entryY=0;entryDx=0;entryDy=0;" parent="1" source="PVhwvFCMjaON6rtG5Q-Z-6" target="PVhwvFCMjaON6rtG5Q-Z-14" edge="1">
          <mxGeometry relative="1" as="geometry">
            <Array as="points">
              <mxPoint x="-140" y="920" />
              <mxPoint x="-420" y="920" />
            </Array>
            <mxPoint x="-420" y="960" as="targetPoint" />
          </mxGeometry>
        </mxCell>
        <mxCell id="PVhwvFCMjaON6rtG5Q-Z-6" value="&lt;div class=&quot;pointer&quot; style=&quot;box-sizing: border-box; color: rgb(59, 59, 59); font-family: Consolas, 黑体, &amp;quot;Courier New&amp;quot;, monospace; font-size: 14px; white-space-collapse: preserve;&quot;&gt;&lt;div class=&quot;trace-line&quot; style=&quot;box-sizing: border-box;&quot;&gt;&lt;div style=&quot;font-family: Consolas, 黑体, &amp;quot;Courier New&amp;quot;, monospace, Consolas, &amp;quot;Courier New&amp;quot;, monospace; line-height: 19px; text-wrap: nowrap;&quot;&gt;&lt;div&gt;&amp;nbsp; [aesop] ✅ (G1) [100.0000%] ⋯ ⊢ b * (c * a) = b * (a * c) ▼&lt;/div&gt;&lt;div&gt;&amp;nbsp; &amp;nbsp; [] Initial goal:&lt;/div&gt;&lt;div&gt;&amp;nbsp; a&amp;nbsp;b&amp;nbsp;c&amp;nbsp;:&amp;nbsp;ℝ&lt;/div&gt;&lt;div&gt;&amp;nbsp; ⊢ b * (c * a) = b * (a * c)&lt;/div&gt;&lt;div&gt;&amp;nbsp; &amp;nbsp; [] ✅ Normalisation ▼&lt;/div&gt;&lt;div&gt;&amp;nbsp; &amp;nbsp; [] ❌ norm|tactic|global|Aesop.BuiltinRules.intros ▶&lt;/div&gt;&lt;div&gt;&amp;nbsp; &amp;nbsp; [] ❌ &amp;lt;norm unfold&amp;gt; ▶&lt;/div&gt;&lt;div&gt;&lt;div style=&quot;line-height: 19px;&quot;&gt;&lt;div&gt;  &amp;nbsp; [] ✅ &amp;lt;norm simp&amp;gt; ▼&lt;/div&gt;&lt;div&gt;  &amp;nbsp;   [Meta.Tactic.simp.rewrite] mul_eq_mul_left_iff:1000, &lt;/div&gt;&lt;div&gt;      b * (c * a) = b * (a * c) ==&amp;gt; c * &lt;span style=&quot;color: #0000ff;&quot;&gt;a&lt;/span&gt; = a * c ∨ &lt;span style=&quot;color: #0000ff;&quot;&gt;b&lt;/span&gt; = 0 &lt;/div&gt;&lt;/div&gt;&lt;/div&gt;&lt;div&gt;&amp;nbsp; &amp;nbsp; [] ❌ norm|tactic|global|Aesop.BuiltinRules.intros ▶&lt;/div&gt;&lt;div&gt;&amp;nbsp; &amp;nbsp; [] ❌ &amp;lt;norm unfold&amp;gt; ▶&lt;/div&gt;&lt;div&gt;&amp;nbsp; &amp;nbsp; [] ❌ &amp;lt;norm simp&amp;gt; ▶&lt;/div&gt;&lt;div&gt;&amp;nbsp; &amp;nbsp; [] Goal after normalisation:&lt;/div&gt;&lt;div&gt;&amp;nbsp; a&amp;nbsp;b&amp;nbsp;c&amp;nbsp;:&amp;nbsp;ℝ&lt;/div&gt;&lt;div&gt;&amp;nbsp; ⊢ c * &lt;span style=&quot;color: #0000ff;&quot;&gt;a&lt;/span&gt; = a * c ∨ &lt;span style=&quot;color: #0000ff;&quot;&gt;b&lt;/span&gt; = 0&lt;/div&gt;&lt;div&gt;&amp;nbsp; &amp;nbsp; [] ❌ Safe rules ▼&lt;/div&gt;&lt;div&gt;&amp;nbsp; &amp;nbsp; [] ❌ safe|tactic|global|Aesop.BuiltinRules.assumption ▶&lt;/div&gt;&lt;div&gt;&amp;nbsp; &amp;nbsp; [] ❌ safe|tactic|global|Aesop.BuiltinRules.rfl ▶&lt;/div&gt;&lt;div&gt;&amp;nbsp; &amp;nbsp; [] ❌ safe|tactic|global|Aesop.BuiltinRules.splitTarget ▶&lt;/div&gt;&lt;div&gt;&amp;nbsp; &amp;nbsp; [] ❌ safe|tactic|global|Aesop.BuiltinRules.splitHypotheses ▶&lt;/div&gt;&lt;div&gt;&amp;nbsp; &amp;nbsp; [] ✅ Unsafe rules ▼&lt;/div&gt;&lt;div&gt;&amp;nbsp; &amp;nbsp; [] ❌ unsafe|tactic|global|Aesop.BuiltinRules.applyHyps ▶&lt;/div&gt;&lt;div&gt;&amp;nbsp; &amp;nbsp; [] ✅ unsafe|constructors|global|Or&lt;/div&gt;&lt;/div&gt;&lt;/div&gt;&lt;/div&gt;" style="whiteSpace=wrap;html=1;rounded=0;align=left;" parent="1" vertex="1">
          <mxGeometry x="-400" y="440" width="520" height="460" as="geometry" />
        </mxCell>
        <mxCell id="PVhwvFCMjaON6rtG5Q-Z-35" style="edgeStyle=orthogonalEdgeStyle;rounded=0;orthogonalLoop=1;jettySize=auto;html=1;exitX=0.5;exitY=1;exitDx=0;exitDy=0;entryX=0.5;entryY=0;entryDx=0;entryDy=0;" parent="1" source="PVhwvFCMjaON6rtG5Q-Z-14" target="PVhwvFCMjaON6rtG5Q-Z-19" edge="1">
          <mxGeometry relative="1" as="geometry">
            <mxPoint x="140" y="940" as="targetPoint" />
          </mxGeometry>
        </mxCell>
        <mxCell id="PVhwvFCMjaON6rtG5Q-Z-14" value="&lt;div style=&quot;color: rgb(59, 59, 59); font-family: Consolas, 黑体, &amp;quot;Courier New&amp;quot;, monospace, Consolas, &amp;quot;Courier New&amp;quot;, monospace; font-size: 14px; line-height: 19px; white-space: pre;&quot;&gt;&lt;div&gt;&amp;nbsp; [aesop] new ❓️ R1 [50.0000%] unsafe|constructors|global|Or ▼&lt;br&gt;&lt;/div&gt;&lt;div&gt;&amp;nbsp; [aesop] new ❓️ G2 [50.0000%] ⋯ ⊢ c * &lt;span style=&quot;color: #0000ff;&quot;&gt;a&lt;/span&gt; = a * c ▼&lt;/div&gt;&lt;div&gt;&amp;nbsp; &amp;nbsp; []&lt;/div&gt;&lt;div&gt;&amp;nbsp; case h&lt;/div&gt;&lt;div&gt;&amp;nbsp; a&amp;nbsp;b&amp;nbsp;c&amp;nbsp;:&amp;nbsp;ℝ&lt;/div&gt;&lt;div&gt;&amp;nbsp; ⊢ c * &lt;span style=&quot;color: #0000ff;&quot;&gt;a&lt;/span&gt; = a * c&lt;/div&gt;&lt;/div&gt;" style="whiteSpace=wrap;html=1;rounded=0;align=left;" parent="1" vertex="1">
          <mxGeometry x="-680" y="960" width="520" height="120" as="geometry" />
        </mxCell>
        <mxCell id="PVhwvFCMjaON6rtG5Q-Z-36" style="edgeStyle=orthogonalEdgeStyle;rounded=0;orthogonalLoop=1;jettySize=auto;html=1;exitX=0.5;exitY=1;exitDx=0;exitDy=0;" parent="1" source="PVhwvFCMjaON6rtG5Q-Z-19" target="PVhwvFCMjaON6rtG5Q-Z-25" edge="1">
          <mxGeometry relative="1" as="geometry" />
        </mxCell>
        <mxCell id="PVhwvFCMjaON6rtG5Q-Z-19" value="&lt;div style=&quot;color: rgb(59, 59, 59); font-family: Consolas, 黑体, &amp;quot;Courier New&amp;quot;, monospace, Consolas, &amp;quot;Courier New&amp;quot;, monospace; font-size: 14px; line-height: 19px; white-space: pre;&quot;&gt;&lt;div&gt;&amp;nbsp; [aesop] new ❓️ R2 [50.0000%] unsafe|constructors|global|Or ▼&lt;br&gt;&lt;/div&gt;&lt;div&gt;&amp;nbsp; [aesop] new ❓️ G3 [50.0000%] ⋯ ⊢ &lt;span style=&quot;color: #0000ff;&quot;&gt;b&lt;/span&gt; = 0 ▼&lt;/div&gt;&lt;div&gt;&amp;nbsp; &amp;nbsp; []&lt;/div&gt;&lt;div&gt;&amp;nbsp; case h&lt;/div&gt;&lt;div&gt;&amp;nbsp; a&amp;nbsp;b&amp;nbsp;c&amp;nbsp;:&amp;nbsp;ℝ&lt;/div&gt;&lt;div&gt;&amp;nbsp; ⊢ &lt;span style=&quot;color: #0000ff;&quot;&gt;b&lt;/span&gt; = 0&lt;/div&gt;&lt;/div&gt;" style="whiteSpace=wrap;html=1;align=left;rounded=0;" parent="1" vertex="1">
          <mxGeometry x="-120" y="960" width="520" height="120" as="geometry" />
        </mxCell>
        <mxCell id="PVhwvFCMjaON6rtG5Q-Z-37" style="edgeStyle=orthogonalEdgeStyle;rounded=0;orthogonalLoop=1;jettySize=auto;html=1;exitX=0.5;exitY=1;exitDx=0;exitDy=0;entryX=0.5;entryY=0;entryDx=0;entryDy=0;" parent="1" source="PVhwvFCMjaON6rtG5Q-Z-25" target="PVhwvFCMjaON6rtG5Q-Z-28" edge="1">
          <mxGeometry relative="1" as="geometry" />
        </mxCell>
        <mxCell id="PVhwvFCMjaON6rtG5Q-Z-25" value="&lt;div style=&quot;color: rgb(59, 59, 59); font-family: Consolas, 黑体, &amp;quot;Courier New&amp;quot;, monospace, Consolas, &amp;quot;Courier New&amp;quot;, monospace; font-size: 14px; line-height: 19px; white-space: pre;&quot;&gt;&lt;div&gt;&amp;nbsp; [aesop] ❌ (G3) [50.0000%] ⋯ ⊢ &lt;span style=&quot;color: #0000ff;&quot;&gt;b&lt;/span&gt; = 0 ▼&lt;/div&gt;&lt;div&gt;&amp;nbsp; &amp;nbsp; [] Initial goal:&lt;/div&gt;&lt;div&gt;&amp;nbsp; case h&lt;/div&gt;&lt;div&gt;&amp;nbsp; a&amp;nbsp;b&amp;nbsp;c&amp;nbsp;:&amp;nbsp;ℝ&lt;/div&gt;&lt;div&gt;&amp;nbsp; ⊢ &lt;span style=&quot;color: #0000ff;&quot;&gt;b&lt;/span&gt; = 0&lt;/div&gt;&lt;div&gt;&amp;nbsp; &amp;nbsp; [] ✅ Normalisation ▼&lt;/div&gt;&lt;div&gt;&amp;nbsp; &amp;nbsp; [] ❌ norm|tactic|global|Aesop.BuiltinRules.intros ▶&lt;/div&gt;&lt;div&gt;&amp;nbsp; &amp;nbsp; [] ❌ &amp;lt;norm unfold&amp;gt; ▶&lt;/div&gt;&lt;div&gt;&amp;nbsp; &amp;nbsp; [] ❌ &amp;lt;norm simp&amp;gt; ▶&lt;/div&gt;&lt;div&gt;&amp;nbsp; &amp;nbsp; [] Goal after normalisation:&lt;/div&gt;&lt;div&gt;&amp;nbsp; case h&lt;/div&gt;&lt;div&gt;&amp;nbsp; a&amp;nbsp;b&amp;nbsp;c&amp;nbsp;:&amp;nbsp;ℝ&lt;/div&gt;&lt;div&gt;&amp;nbsp; ⊢ &lt;span style=&quot;color: #0000ff;&quot;&gt;b&lt;/span&gt; = 0&lt;/div&gt;&lt;div&gt;&amp;nbsp; &amp;nbsp; [] ❌ Safe rules &lt;span style=&quot;background-color: initial;&quot;&gt;▶&lt;/span&gt;&lt;/div&gt;&lt;div&gt;&amp;nbsp; &amp;nbsp; [] ❌ Unsafe rules &lt;span style=&quot;background-color: initial;&quot;&gt;▶&lt;br&gt;&lt;/span&gt;&lt;/div&gt;&lt;/div&gt;" style="whiteSpace=wrap;html=1;align=left;rounded=0;" parent="1" vertex="1">
          <mxGeometry x="-120" y="1100" width="520" height="300" as="geometry" />
        </mxCell>
        <mxCell id="PVhwvFCMjaON6rtG5Q-Z-31" value="" style="edgeStyle=orthogonalEdgeStyle;rounded=0;orthogonalLoop=1;jettySize=auto;html=1;" parent="1" source="PVhwvFCMjaON6rtG5Q-Z-28" target="PVhwvFCMjaON6rtG5Q-Z-30" edge="1">
          <mxGeometry relative="1" as="geometry" />
        </mxCell>
        <mxCell id="PVhwvFCMjaON6rtG5Q-Z-28" value="&lt;div style=&quot;color: rgb(59, 59, 59); font-family: Consolas, 黑体, &amp;quot;Courier New&amp;quot;, monospace, Consolas, &amp;quot;Courier New&amp;quot;, monospace; font-size: 14px; line-height: 19px; white-space: pre;&quot;&gt;&lt;div&gt;&amp;nbsp; [aesop] new (G2) [50.0000%] ⋯ ⊢ c * &lt;span style=&quot;color: #0000ff;&quot;&gt;a&lt;/span&gt; = a * c ▼&lt;/div&gt;&lt;div&gt;&amp;nbsp; &amp;nbsp; [] Initial goal:&lt;/div&gt;&lt;div&gt;&amp;nbsp; case h&lt;/div&gt;&lt;div&gt;&amp;nbsp; a&amp;nbsp;b&amp;nbsp;c&amp;nbsp;:&amp;nbsp;ℝ&lt;/div&gt;&lt;div&gt;&amp;nbsp; ⊢ c * &lt;span style=&quot;color: #0000ff;&quot;&gt;a&lt;/span&gt; = a * c&lt;/div&gt;&lt;div&gt;&amp;nbsp; &amp;nbsp; [] ✅ Normalisation ▼&lt;/div&gt;&lt;div&gt;&amp;nbsp; &amp;nbsp; [] ❌ norm|tactic|global|Aesop.BuiltinRules.intros ▶&lt;/div&gt;&lt;div&gt;&amp;nbsp; &amp;nbsp; [] ❌ &amp;lt;norm unfold&amp;gt; ▶&lt;/div&gt;&lt;div&gt;&amp;nbsp; &amp;nbsp; [] ❌ &amp;lt;norm simp&amp;gt; ▶&lt;/div&gt;&lt;div&gt;&amp;nbsp; &amp;nbsp; [] Goal after normalisation:&lt;/div&gt;&lt;div&gt;&amp;nbsp; case h&lt;/div&gt;&lt;div&gt;&amp;nbsp; a&amp;nbsp;b&amp;nbsp;c&amp;nbsp;:&amp;nbsp;ℝ&lt;/div&gt;&lt;div&gt;&amp;nbsp; ⊢ c * &lt;span style=&quot;color: #0000ff;&quot;&gt;a&lt;/span&gt; = a * c&lt;/div&gt;&amp;nbsp; &amp;nbsp; [] ❌ Safe rules &lt;span style=&quot;background-color: initial;&quot;&gt;▶&lt;/span&gt;&lt;div&gt;&amp;nbsp; &amp;nbsp; [] des Unsafe rules ▼&lt;/div&gt;&lt;div&gt;&amp;nbsp; &amp;nbsp; [] ❌ unsafe|tactic|global|Aesop.BuiltinRules.ext ▶&lt;/div&gt;&lt;div&gt;&amp;nbsp; &amp;nbsp; [] ❌ unsafe|tactic|global|Aesop.BuiltinRules.applyHyps ▶&lt;/div&gt;&lt;div&gt;&amp;nbsp; &amp;nbsp; [] des unsafe|apply|global|simp_mul_comm&lt;/div&gt;&lt;/div&gt;" style="whiteSpace=wrap;html=1;align=left;rounded=0;" parent="1" vertex="1">
          <mxGeometry x="-680" y="1140" width="520" height="340" as="geometry" />
        </mxCell>
        <mxCell id="PVhwvFCMjaON6rtG5Q-Z-30" value="&lt;div style=&quot;color: #3b3b3b;background-color: #ffffff;font-family: Consolas, &#39;黑体&#39;, &#39;Courier New&#39;, monospace, Consolas, &#39;Courier New&#39;, monospace;font-weight: normal;font-size: 14px;line-height: 19px;white-space: pre;&quot;&gt;&lt;div&gt;&lt;span style=&quot;color: #3b3b3b;&quot;&gt;&amp;nbsp; [aesop] new des R3 [25.0000%] unsafe|apply|global|simp_mul_comm ▼&lt;/span&gt;&lt;/div&gt;&lt;/div&gt;" style="whiteSpace=wrap;html=1;align=left;rounded=0;" parent="1" vertex="1">
          <mxGeometry x="-680" y="1500" width="520" height="20" as="geometry" />
        </mxCell>
      </root>
    </mxGraphModel>
  </diagram>
</mxfile>
